# xmcd
#
# Track frame offsets:
#	150
#	22420
#	42405
#	59045
#	76595
#	94715
#	124305
#	142187
#	161680
#	182622
#	199642
#	216522
#	241025
#	269547
#	289817
#
# Disc length: 4147 seconds
#
# Revision: 0
# Processed by: cddbd v1.5.2PL0 Copyright (c) Steve Scherf et al.
# Submitted via: EasyCDDAExtractor 11.5.0.1
#
DISCID=e710310f
DTITLE=Rollins Band - Weight
DYEAR=1994
DGENRE=Hard Rock
TTITLE0=Disconnect
TTITLE1=Fool
TTITLE2=Icon
TTITLE3=Civilized
TTITLE4=Divine Object Of Hatred
TTITLE5=Liar
TTITLE6=Step Back
TTITLE7=Wrong Man
TTITLE8=Volume 4
TTITLE9=Tired
TTITLE10=Alien Blueprint
TTITLE11=Shine
TTITLE12=Miles Jam
TTITLE13=Plague
TTITLE14=Right Here Too Much
EXTD=
EXTT0=
EXTT1=
EXTT2=
EXTT3=
EXTT4=
EXTT5=
EXTT6=
EXTT7=
EXTT8=
EXTT9=
EXTT10=
EXTT11=
EXTT12=
EXTT13=
EXTT14=
PLAYORDER=
